<svg xmlns="http://www.w3.org/2000/svg" viewBox="0 0 100 100">
  <path d="M98.385 18.112c-1.807-1.045-14.785 5.55-20.812 5.55-2.902 0-6.799-4.97-27.092-4.976-20.293.006-24.19 4.976-27.092 4.976-6.027 0-19.004-6.595-20.812-5.55-1.181.683-.584 7.156 2.452 19.8 1.814 7.553 1.559 11.057 5.245 19.066 5.312 15.158 22.303 26.192 40.207 26.207 17.903-.015 34.894-11.049 40.207-26.207 3.686-8.009 3.431-11.514 5.245-19.066 3.036-12.643 3.633-19.117 2.452-19.8z" />
  <path fill="#fff" d="m50.506 53.622-.025.058-.025-.058C44.873 67.252 32.59 74.691 27.89 77.128c6.64 4.003 14.504 6.406 22.591 6.582 8.088-.176 15.951-2.579 22.591-6.582-4.701-2.437-16.984-9.876-22.566-23.506z" />
  <g fill="#fff">
    <path d="M.414 66.547c2.57-1.285 5.388-2.019 8.223-2.493 2.844-.464 5.737-.576 8.616-.467.719.049 1.435.13 2.152.193.358.037.718.06 1.074.109l1.067.17c.71.118 1.424.216 2.13.349.703.156 1.403.322 2.101.493l1.048.253 1.029.321 2.055.645c.685.215 1.337.523 2.006.779.666.266 1.328.539 1.988.817-1.375-.411-2.715-.91-4.09-1.295l-2.067-.554-1.033-.276-1.049-.208a92.261 92.261 0 0 1-2.092-.429c-.701-.122-1.407-.21-2.111-.316l-1.056-.153c-.353-.043-.708-.061-1.062-.093-.709-.053-1.417-.122-2.126-.163a47.02 47.02 0 0 0-8.511.312l-1.056.135-1.051.186c-.705.109-1.395.282-2.091.435-1.389.324-2.762.723-4.094 1.25zM1.146 74.192c2.443-1.512 5.183-2.499 7.963-3.229 2.79-.72 5.661-1.094 8.538-1.246.72-.017 1.441-.001 2.161-.003.36.004.72-.005 1.08.011l1.078.072c.718.053 1.437.086 2.153.155.714.091 1.426.194 2.137.301l1.067.157 1.054.226 2.105.456c.701.152 1.379.399 2.069.594.687.204 1.372.416 2.053.633-1.407-.285-2.786-.66-4.19-.919l-2.109-.364-1.053-.181-1.063-.112a93.614 93.614 0 0 1-2.122-.237c-.709-.058-1.421-.081-2.131-.124l-1.065-.057c-.355-.011-.711.004-1.066.004-.711.011-1.422.007-2.132.03a46.971 46.971 0 0 0-8.448 1.083l-1.043.23-1.03.281c-.692.173-1.364.407-2.043.623-1.353.448-2.685.969-3.963 1.616z" />
    <g>
      <path d="M100.547 66.547c-2.57-1.285-5.388-2.019-8.223-2.493-2.844-.464-5.737-.576-8.616-.467-.719.049-1.435.13-2.152.193-.358.037-.718.06-1.074.109l-1.067.17c-.71.118-1.424.216-2.13.349-.703.156-1.403.322-2.101.493l-1.048.253-1.029.321-2.055.645c-.685.215-1.337.523-2.006.779-.666.266-1.328.539-1.988.817 1.375-.411 2.715-.91 4.09-1.295l2.067-.554 1.033-.276 1.049-.208a92.261 92.261 0 0 0 2.092-.429c.701-.122 1.407-.21 2.111-.316l1.056-.153c.353-.043.708-.061 1.062-.093.709-.053 1.417-.122 2.126-.163a47.02 47.02 0 0 1 8.511.312l1.059.134 1.051.186c.705.109 1.395.282 2.091.435 1.386.325 2.76.724 4.091 1.251zM99.816 74.192c-2.443-1.512-5.183-2.499-7.963-3.229-2.79-.72-5.661-1.094-8.538-1.246-.72-.017-1.441-.001-2.161-.003-.36.004-.72-.005-1.08.011l-1.078.072c-.718.053-1.437.086-2.153.155-.714.091-1.426.194-2.137.301l-1.067.157-1.054.226-2.105.456c-.701.152-1.379.399-2.069.594-.687.204-1.372.416-2.053.633 1.407-.285 2.786-.66 4.19-.919l2.109-.364 1.053-.181 1.063-.112a93.614 93.614 0 0 0 2.122-.237c.709-.058 1.421-.081 2.131-.124l1.065-.057c.355-.011.711.004 1.066.004.711.011 1.422.007 2.132.03 2.842.097 5.669.474 8.448 1.083l1.043.23 1.03.281c.692.173 1.364.407 2.043.623 1.353.448 2.684.969 3.963 1.616z" />
    </g>
  </g>
  <circle cx="50.481" cy="70.056" r="5.635" fill="#f4cdd2" />
  <g fill="#fabf5a">
    <path d="M42.28 49.743s-6.625 5.035-13.164 3.632S18.6 44.663 18.6 44.663s6.625-5.035 13.164-3.632 10.516 8.712 10.516 8.712zM58.682 49.743s6.625 5.035 13.164 3.632 10.516-8.713 10.516-8.713-6.625-5.035-13.164-3.632-10.516 8.713-10.516 8.713z" />
  </g>
  <path d="M31.822 47.203c0 2.848-1.382 5.156-1.382 5.156s-1.382-2.309-1.382-5.156 1.382-5.156 1.382-5.156 1.382 2.308 1.382 5.156zM69.14 47.203c0 2.848 1.382 5.156 1.382 5.156s1.382-2.309 1.382-5.156-1.382-5.156-1.382-5.156-1.382 2.308-1.382 5.156z" />
</svg>
